PathFileType	4	(X/Y/Z)	D:\TRACE\v60_Jaco2_6-2-23\BothDRS_Motion1_5-v60.trc
DataRate	CameraRate	NumFrames	NumMarkers	Units	OrigDataRate	OrigDataStartFrame	OrigNumFrames
100.00	100.00	      31	9	mm	100.00	6006	      6863
Frame#	Time	front left toe			Front right toe			aft left toe			aft right toe			Arm			FL body			FR body			AL Body			AR Body			
		X1	Y1	Z1	X2	Y2	Z2	X3	Y3	Z3	X4	Y4	Z4	X5	Y5	Z5	X6	Y6	Z6	X7	Y7	Z7	X8	Y8	Z8	X9	Y9	Z9	

6006	60.050	-138.08455	136.47241	-328.22195	257.64841	-0.16597	-388.44772	-40.06431	22.48216	285.00861	311.57605	155.93686	241.50032	124.24375	1077.85254	-678.08417	-41.27318	560.91595	-484.53241	117.36002	557.86218	-507.02908	91.02682	581.16180	452.14136	247.00815	572.22607	431.82867	
6007	60.060	-137.39711	134.73335	-328.85382	256.75906	-0.08126	-388.46259	-41.23648	22.59071	284.98828	314.96417	154.66141	239.59398	123.87214	1077.41125	-677.95062	-41.51982	560.80896	-484.60471	117.31160	557.72650	-507.11499	90.55666	581.22992	452.07465	246.20148	572.47583	431.84644	
6008	60.070	-136.35535	130.73083	-329.22632	255.85133	-0.31709	-388.44070	-41.85815	22.47621	284.96075	318.01346	151.77191	238.22641	123.75848	1076.71179	-677.44629	-41.14173	560.16541	-484.30087	116.99107	557.45795	-507.08301	89.90292	581.22021	452.07294	245.70279	572.60321	431.83340	
6009	60.080	-135.16872	125.67703	-329.97076	255.15144	-0.31762	-388.34793	-42.60776	22.39977	284.83420	320.39255	147.57498	236.84407	124.12682	1075.95422	-676.60120	-41.92266	559.64996	-484.57773	116.58325	557.08899	-507.01627	89.42357	581.17090	452.06952	244.93065	572.50433	431.75494	
6010	60.090	-132.66176	118.73302	-330.92194	254.71574	-0.21305	-388.25528	-43.99969	22.45699	284.99371	322.77893	142.76953	235.69858	124.60849	1075.57715	-675.79120	-42.56538	559.23682	-484.57520	116.83695	557.00134	-507.27716	88.66959	581.02368	452.15891	244.05467	572.15210	431.40167	
6011	60.100	-131.31969	112.30524	-332.38269	253.56706	-0.27108	-388.42963	-44.62153	22.45056	285.03400	324.80710	136.58023	234.25919	125.16436	1075.17859	-674.84186	-42.62477	558.83649	-484.45346	116.28486	556.70288	-507.15384	87.92175	580.92310	452.28592				
6012	60.110	-130.08398	105.41742	-333.91202	252.64166	-0.44451	-388.27658	-45.13971	22.34373	285.05179	326.99612	129.45187	232.62514	125.59616	1074.91455	-673.98651	-43.17278	558.60321	-484.25922	115.84737	556.58374	-507.36014	87.14149	580.82635	452.34674	243.10960	572.58179	431.55371	
6013	60.120	-129.62375	97.72724	-335.40363	251.79797	-0.54812	-388.17188	-46.48022	22.66963	285.03040	329.59589	121.18894	231.40501	125.73750	1074.49890	-673.05585	-43.52920	558.28979	-484.42511	115.58086	556.46161	-507.16116	86.61877	580.62213	452.42532	242.57204	572.54877	431.77365	
6014	60.130	-128.50475	89.44813	-336.71985	249.74628	-1.16167	-388.52628	-47.33784	22.48593	285.20779	331.34735	111.99233	230.15907	125.40492	1073.81274	-672.21027	-43.70848	558.09808	-484.53006	115.44579	556.19788	-507.11804	85.55323	580.51935	452.62152	241.35693	572.30316	431.89044	
6015	60.140	-127.57951	80.97875	-337.97061	248.97722	-1.08012	-388.41751	-47.98050	22.31914	285.03030	333.55334	102.21729	229.19385	125.77969	1073.19446	-671.30212	-44.07780	557.83752	-484.48883	114.96071	555.94910	-507.01913	84.75927	580.37476	452.62738	240.79572	572.28491	432.17093	
6016	60.150	-126.79472	71.82506	-338.89081	249.57549	-0.72434	-388.08542	-49.07394	22.11792	284.98599	334.41577	91.14314	228.54887	126.00465	1072.71777	-670.64752	-44.65157	557.44806	-484.40698	113.52408	555.63013	-506.93378	84.13237	580.14697	452.75586	239.90237	571.99213	432.15335	
6017	60.160	-125.70853	62.84717	-339.58865	248.66748	-0.97203	-388.03397	-50.11901	22.10943	285.04483	335.51498	82.18816	228.65350	126.14825	1072.13477	-669.74042	-45.08376	557.38586	-484.36749	114.25354	555.60651	-506.76715	83.38472	579.97229	452.75586	239.27812	572.05511	432.23999	
6018	60.170	-125.66254	53.63908	-339.82251	246.75790	-1.17768	-388.22229	-50.80223	22.06390	285.05118	335.47049	73.27041	228.37737	126.57084	1071.54846	-668.85950	-46.08354	557.39941	-484.47583	113.64655	555.53412	-506.71707	82.45930	580.09583	452.89819	238.08630	571.79309	432.05875	
6019	60.180	-125.93157	44.71751	-339.34344	245.93408	-1.21404	-388.11234	-51.73838	22.32377	285.00439	334.67761	64.36959	228.91661	127.18602	1071.02002	-668.16693	-45.61948	556.69714	-484.20291	113.09686	555.39679	-506.73166	81.96033	580.21362	452.96371	238.09564	572.23346	432.19727	
6020	60.190	-126.65314	36.22661	-338.61304	246.24448	-0.72202	-387.89471	-52.70068	22.33376	285.20804	333.86847	56.33221	229.42468	127.54345	1070.67224	-667.39972	-46.00651	556.43433	-484.28711	113.25066	555.30737	-506.81122	81.65455	580.13879	452.92444	237.26779	572.30170	432.26727	
6021	60.200	-127.76803	28.23419	-337.39966	244.37454	-1.04315	-388.09552	-53.45325	22.17361	285.03809	332.79810	48.90127	230.27615	127.69169	1070.11060	-666.80450	-46.58302	555.80536	-484.09933	112.15726	554.95105	-506.70425	80.76601	580.10535	452.89273	236.55222	572.32941	432.29654	
6022	60.210	-129.15388	21.20122	-335.84891	243.09756	-1.24351	-388.01254	-54.48034	22.22869	284.97592	331.48581	42.08357	231.30077	127.88520	1069.60974	-666.39032	-47.38923	555.76428	-484.48065	111.55524	554.96283	-507.19397	79.97498	580.07056	453.00595	236.07611	572.38440	432.37616	
6023	60.220	-130.89937	14.97830	-334.43900	243.43826	-1.02260	-387.84827	-55.60772	22.08135	284.96115	329.40179	35.51301	232.29500	127.94598	1069.10779	-665.92474	-47.73794	555.75616	-484.45859	111.40710	554.61969	-506.72665	79.60362	580.11707	453.01578	235.50941	572.40863	432.43420	
6024	60.230	-132.02589	8.67364	-333.40286	241.47446	-1.58831	-388.07156	-56.28920	22.48528	285.07144	327.80710	29.54073	233.24225	127.84884	1068.47656	-665.80920	-48.32468	555.68976	-484.50159	110.55547	554.30560	-506.42554	78.89758	580.16296	452.75836	234.69533	572.64691	432.56851	
6025	60.240	-133.08969	4.05537	-333.33627	240.46367	-1.68331	-387.97491	-57.17418	22.56310	285.09042	328.17587	30.49342	230.47079	128.16183	1067.82178	-665.39447	-48.57517	555.47009	-484.58047	109.69978	554.07288	-506.09186	77.79311	580.42029	452.67871	233.90359	572.95605	432.53116	
6026	60.250	-136.00867	3.46740	-335.73630	240.52864	-1.27828	-387.50742	-57.77458	22.65864	285.17276	326.71964	26.66288	231.28090	128.86650	1067.30835	-664.94775	-48.88264	555.21075	-484.65451	110.22238	554.23907	-506.76721	77.11965	580.96075	452.85556	233.17644	573.60638	432.42746	
6027	60.260	-136.87044	1.72482	-334.46854	239.47087	-0.92147	-387.44879	-58.63658	22.91257	285.36285	326.40237	28.66518	230.70200	129.26010	1067.05493	-664.84631	-49.38828	555.62018	-484.68069	109.80617	554.59631	-506.70551	75.88886	582.25220	452.66010	231.78909	574.48248	432.53473	
6028	60.270	-137.93546	2.58153	-334.83731	238.49452	-0.36019	-387.68500	-59.52570	23.44874	285.23242	325.07178	28.25408	231.65402	129.60144	1067.09180	-664.97809	-50.11847	556.90051	-484.91397	108.59621	555.55383	-506.63644	74.89642	582.99530	452.70535	231.12340	575.43555	433.01398	
6029	60.280	-138.22395	2.22371	-334.85214	235.56342	2.34283	-386.97174	-60.72326	26.23800	284.51721	323.46298	27.06991	232.61340	130.13931	1067.91418	-665.09674	-49.59389	558.55310	-484.79526	109.08105	557.04895	-506.82620	74.17033	583.19928	452.72360	229.82890	575.94403	432.42697	
6030	60.290	-138.92981	2.57268	-334.34152	231.79762	6.15532	-383.08005	-59.03669	29.60073	286.92615	322.89001	26.67146	231.48404	130.89183	1068.96558	-664.07141	-50.43071	559.68396	-485.58038	108.40591	558.14899	-506.62115	72.47366	583.16956	452.25955	228.81325	575.90997	432.52521	
6031	60.300	-140.15526	2.59297	-335.29984	227.68671	14.20540	-379.99500	-56.03373	35.87625	289.24069	322.80142	27.37410	231.63490	131.22897	1070.54431	-662.78857	-51.16916	560.49335	-486.33319	109.00417	558.99121	-507.64996	71.85116	583.11182	451.75107	228.01137	575.67450	431.99292	
6032	60.310	-140.95694	2.31993	-335.04761	224.56786	23.57257	-378.54691	-54.85090	46.43131	288.54962	320.80502	26.69730	231.63316	132.42168	1072.11914	-661.49921	-51.09116	560.47577	-486.27252	107.54973	559.00848	-508.32770	71.11311	583.09949	451.42773	226.95259	575.20001	431.55075	
6033	60.320	-142.13455	1.95220	-334.99442	222.49408	35.33018	-379.07620	-54.83908	57.14885	287.42224	320.15527	26.56199	231.62537	133.12857	1073.14160	-661.10815	-52.21238	560.56067	-486.71912	107.14643	558.88135	-508.03818	70.26907	582.98138	451.20261	226.62738	575.14172	431.48422	
6034	60.330	-142.97964	2.16555	-334.92227	222.39221	48.42763	-380.99969	-57.75260	70.17810	285.39777	319.13049	26.20974	231.68658	133.54082	1072.94507	-660.98462	-53.15198	560.98370	-486.79025	106.27779	558.94934	-508.25827	69.99783	582.46375	451.29526	226.32884	574.34979	431.24731	
6035	60.340	-144.11458	2.29882	-334.81897	222.71362	61.62697	-383.28516	-60.96888	83.05789	283.56039	318.31555	25.91336	231.60793	133.41273	1071.85498	-660.94000	-54.61325	561.26508	-486.86407	104.29025	558.72150	-507.48584	69.89688	581.82855	451.19315	226.07184	573.84375	431.40842	
6036	60.350	-145.03917	2.33752	-334.66241	224.95998	74.89026	-385.34344	-63.32181	95.82678	281.64240	317.92572	25.89574	231.71126	132.94702	1070.67334	-661.06586	-55.43059	561.31781	-486.76578	103.10227	558.56714	-507.56088	69.56605	581.17407	451.04181	225.86534	573.09204	430.94730	
